<?xml version="1.0" encoding="UTF-8"?>
<svg width="429" height="84.419" viewBox="0 0 504.27 99.229" xmlns="http://www.w3.org/2000/svg">
<g transform="matrix(2.8676 0 0 2.8676 -4.3965 12.114)" fill="#f9f7f7">
<path d="m7.0508 20.195c-3.0957 0-5.5176-1.582-5.5176-5.1367v-9.1699h2.9297v8.7695c0 2.1484 1.1426 2.9492 2.5879 2.9492 1.4551 0 2.6074-0.81055 2.6074-2.9492v-8.7695h2.9297v9.1699c0 3.5547-2.4316 5.1367-5.5371 5.1367zm8.8965-0.19531v-14.111h2.9297v14.111h-2.9297z"/>
</g>
<g transform="matrix(.17012 0 0 .17012 70 -7.7914)" fill="#f9f7f7">
<g xmlns="http://www.w3.org/2000/svg">{" "}
<path d="m587.1 45.8c-52.2 0-103.5 13.8-148.2 40.5-43.8-25.9-95.1-40.5-147.2-40.5-160.9 0-291.7 130.7-291.7 291.6s130.8 291.7 291.7 291.7c52 0 103.1-13.7 147.7-40.2 44.6 26.5 95.7 40.2 147.7 40.2 160.9 0 291.7-130.8 291.7-291.7s-130.8-291.6-291.7-291.6zm-147.7 514.1c-46.1-30.9-80.6-74-100.4-123.3l113.7 113.7c-4.3 3.3-8.8 6.5-13.3 9.6zm34-27.2-149.6-149.5c-2.6-15-3.9-30.3-3.9-45.8 0-3.6 0.1-7.2 0.2-10.8l178.4 179.1c-7.7 9.6-16.1 18.6-25.1 27zm41.3-49-190.9-191.6c2.5-14.5 6.1-28.6 10.9-42.3l199.2 199.2c-5.6 12-12 23.6-19.2 34.7zm29.9-62.2-198.8-198.9c5.5-11.5 11.8-22.6 18.9-33.3l190.1 190.1c-2.3 14.4-5.7 28.5-10.2 42.1zm-163.7-254.1c7.9-9.6 16.5-18.7 25.8-27.3l146.6 146.6c3.1 16.5 4.7 33.4 4.7 50.7 0 2.3 0 4.6-0.1 7l-177-177zm46.7-44.6c3.7-2.8 7.6-5.5 11.5-8.2 44.6 29.3 78.1 70.3 98 117.6l-109.5-109.4zm-403.1 214.6c0-147.7 119.5-267.2 267.2-267.2 44.2 0 86.6 10.3 125.1 31-76.2 54.6-120.4 142.1-120.4 236.2s45.2 181.6 120.4 236.2c-38.6 20.7-81.9 31-125.1 31-147.7 0.1-267.2-119.4-267.2-267.2zm562.6 267.3c-44.2 0-86.6-10.3-125.1-31 76.2-54.6 120.4-142.1 120.4-236.2s-44.2-181.7-120.4-236.2c38.6-20.7 80.9-31 125.1-31 147.7 0 267.2 119.5 267.2 267.2 0.1 147.7-119.4 267.2-267.2 267.2z"/>
</g>
</g>
<g transform="matrix(2.8289 0 0 2.8289 222.34 12.894)" fill="#f9f7f7">
<path d="m11.709 20.195c-3.0273 0-5.3906-1.4551-5.8203-4.1016l3.0273-0.69336c0.19531 1.582 1.3574 2.4023 2.9102 2.4023 1.1914 0 2.1387-0.52734 2.1289-1.7188-0.0097656-1.3281-1.5723-1.748-3.291-2.2754-2.0703-0.64453-4.2871-1.4063-4.2871-4.0039 0-2.627 2.1484-4.1113 4.9805-4.1113 2.4805 0 4.9805 1.0059 5.5469 3.7109l-2.832 0.70313c-0.26367-1.4063-1.2109-2.0215-2.5391-2.0215-1.1816 0-2.1875 0.48828-2.1875 1.6504 0 1.084 1.3867 1.4453 2.9883 1.9238 2.1289 0.64453 4.6484 1.4648 4.6484 4.2773 0 2.998-2.5098 4.2578-5.2734 4.2578zm17.617-14.306h2.9199v14.111h-3.3887l-6.25-10.088v10.088h-2.9199v-14.111h3.3496l6.2891 10.029v-10.029zm6.5721 14.111v-14.111h2.9297v14.111h-2.9297zm12.441-14.111c2.7637 0 4.4824 2.0508 4.4824 4.5605 0 2.5684-1.7188 4.4922-4.4824 4.4922h-2.9395v5.0586h-2.9297v-14.111h5.8691zm-0.4883 6.6012c1.4648 0 2.1484-0.81055 2.1484-2.0801 0-1.2207-0.68359-2.0703-2.1484-2.0703h-2.4512v4.1504h2.4512zm13.301-6.6012c2.7637 0 4.4824 2.0508 4.4824 4.5605 0 2.5684-1.7188 4.4922-4.4824 4.4922h-2.9395v5.0586h-2.9297v-14.111h5.8691zm-0.4883 6.6012c1.4648 0 2.1484-0.81055 2.1484-2.0801 0-1.2207-0.68359-2.0703-2.1484-2.0703h-2.4512v4.1504h2.4512zm15.616-4.0232h-5.2344v3.2031h4.6387v2.5488h-4.6387v3.1934h5.2344v2.5879h-8.1836v-14.111h8.1836v2.5781zm11.201-2.578v2.5781h-3.3496v11.533h-2.9004v-11.533h-3.3691v-2.5781h9.6191zm6.9041 14.306c-3.0273 0-5.3906-1.4551-5.8203-4.1016l3.0273-0.69336c0.19531 1.582 1.3574 2.4023 2.9102 2.4023 1.1914 0 2.1387-0.52734 2.1289-1.7188-0.0097656-1.3281-1.5723-1.748-3.291-2.2754-2.0703-0.64453-4.2871-1.4063-4.2871-4.0039 0-2.627 2.1484-4.1113 4.9805-4.1113 2.4805 0 4.9805 1.0059 5.5469 3.7109l-2.832 0.70313c-0.26367-1.4063-1.2109-2.0215-2.5391-2.0215-1.1816 0-2.1875 0.48828-2.1875 1.6504 0 1.084 1.3867 1.4453 2.9883 1.9238 2.1289 0.64453 4.6484 1.4648 4.6484 4.2773 0 2.998-2.5098 4.2578-5.2734 4.2578z"/>
</g>
</svg>